<?xml version="1.0" standalone="no"?>
<!DOCTYPE svg PUBLIC "-//W3C//DTD SVG 20010904//EN"
 "http://www.w3.org/TR/2001/REC-SVG-20010904/DTD/svg10.dtd">
<svg version="1.0" xmlns="http://www.w3.org/2000/svg"
 width="300.000000pt" height="286.000000pt" viewBox="0 0 300.000000 286.000000"
 preserveAspectRatio="xMidYMid meet">
<metadata>
Created by potrace 1.10, written by Peter Selinger 2001-2011
</metadata>
<g transform="translate(0.000000,286.000000) scale(0.100000,-0.100000)"
fill="#000000" stroke="none">
<path d="M1733 2683 c-18 -7 -16 -38 2 -53 18 -15 45 2 45 30 0 14 -23 34 -33
29 -1 0 -8 -3 -14 -6z m33 -14 c10 -17 -13 -36 -27 -22 -12 12 -4 33 11 33 5
0 12 -5 16 -11z"/>
<path d="M1393 2654 c-63 -42 -92 -106 -59 -133 8 -7 12 -20 9 -30 -3 -13 10
-34 41 -66 43 -43 46 -50 48 -103 0 -31 0 -64 -1 -72 -5 -26 -5 -64 1 -108 3
-23 2 -45 -2 -47 -4 -3 -20 11 -34 29 -20 26 -26 48 -28 88 l-1 53 -6 -49 c-9
-71 -31 -73 -31 -2 0 45 -3 54 -15 50 -11 -5 -15 2 -16 27 -2 55 -6 79 -13 86
-3 3 -6 -35 -6 -85 0 -55 -4 -92 -10 -92 -6 0 -10 34 -10 81 0 51 -4 78 -10
74 -5 -3 -10 -37 -10 -76 0 -60 -2 -69 -17 -66 -32 5 -40 16 -62 92 -19 63
-27 76 -47 81 -29 8 -64 -19 -64 -49 0 -11 16 -37 35 -58 19 -22 35 -44 35
-49 0 -12 -33 -26 -81 -34 -30 -4 -39 0 -84 45 -27 27 -54 49 -59 49 -6 0 -5
-5 2 -12 20 -20 15 -40 -9 -33 -19 6 -19 4 6 -35 31 -49 29 -61 -16 -82 l-32
-16 -59 51 c-62 55 -90 64 -97 32 -2 -11 -11 -25 -20 -32 -13 -11 -13 -12 -1
-8 17 6 118 -90 107 -101 -3 -4 -28 11 -54 33 -26 22 -55 43 -63 48 -13 8 -13
7 0 -11 8 -10 22 -24 30 -30 61 -47 64 -52 46 -79 -10 -14 -23 -28 -30 -31
-16 -6 -107 39 -131 66 -27 30 -85 25 -85 -8 0 -13 2 -13 13 3 20 26 67 13 67
-18 0 -48 -46 -63 -73 -24 -9 12 -16 17 -16 10 -1 -15 47 -53 68 -53 10 0 38
-13 64 -30 43 -27 46 -31 36 -53 -10 -23 -15 -24 -114 -25 -57 0 -121 -3 -143
-7 -29 -5 -42 -2 -52 9 -16 20 -30 20 -30 1 0 -8 7 -15 15 -15 9 0 15 -9 15
-25 0 -16 -6 -25 -15 -25 -8 0 -15 -7 -15 -15 0 -8 -5 -15 -11 -15 -7 0 -10
21 -7 59 l3 60 -38 -22 c-21 -12 -34 -23 -28 -25 14 -5 14 -29 0 -34 -6 -2 8
-14 31 -27 l42 -23 29 21 c31 23 64 25 192 15 72 -7 77 -8 77 -30 0 -24 -14
-32 -25 -14 -8 13 -52 13 -60 0 -4 -6 9 -10 30 -10 47 0 42 -22 -6 -31 -19 -4
-29 -7 -22 -8 6 0 18 -3 25 -6 8 -3 23 4 35 15 22 19 22 19 28 0 11 -33 -3
-40 -80 -40 -64 0 -77 3 -95 22 l-20 22 -22 -21 c-18 -18 -19 -24 -8 -37 7 -9
20 -16 29 -16 9 0 22 -5 29 -12 7 -7 48 -13 105 -14 84 -2 92 -4 95 -22 2 -13
-5 -25 -20 -33 -13 -6 -38 -25 -57 -41 -28 -25 -39 -29 -68 -23 -61 11 -98
-49 -55 -88 27 -25 49 -21 96 18 24 19 49 35 56 35 7 0 34 12 60 26 39 21 51
24 69 15 27 -15 26 -22 -4 -51 -14 -13 -25 -28 -25 -34 0 -7 3 -8 8 -1 8 11
58 45 67 45 8 0 6 -30 -2 -30 -5 0 -19 -10 -33 -21 l-25 -20 35 14 c57 23 73
7 46 -44 -8 -16 -10 -32 -5 -40 7 -11 9 -11 9 2 0 18 47 65 56 56 3 -3 -7 -22
-22 -43 -24 -31 -26 -36 -8 -26 11 6 26 18 34 26 17 22 59 20 98 -4 32 -19 32
-21 18 -48 -8 -16 -22 -34 -30 -41 -21 -17 -20 -65 0 -85 32 -33 78 -11 90 42
3 15 10 39 16 54 5 15 9 30 8 33 -4 15 44 44 81 50 72 12 103 -40 53 -90 -24
-24 -25 -29 -22 -130 2 -58 0 -105 -4 -105 -5 0 -9 5 -9 10 -1 6 -3 15 -4 20
-1 6 -4 25 -5 43 -3 28 -4 27 -9 -13 -8 -60 -3 -90 15 -83 9 3 14 -2 14 -15 0
-11 -8 -23 -17 -25 -11 -3 -7 -5 10 -6 22 -1 27 3 27 24 0 14 5 25 10 25 15 0
12 -57 -4 -63 -8 -3 -24 -3 -35 0 -15 4 -21 1 -21 -12 0 -9 -6 -15 -12 -12 -7
2 -13 12 -13 23 0 12 -6 18 -18 16 -11 -2 -17 4 -17 18 0 13 7 20 20 20 18 0
20 7 20 71 0 80 -17 87 -19 8 0 -39 -6 -58 -22 -75 -24 -25 -20 -35 25 -77 22
-20 21 -20 44 -8 9 5 29 14 44 20 25 9 27 15 27 63 -2 94 11 221 23 235 24 30
51 11 74 -54 12 -34 33 -78 47 -98 20 -29 23 -45 20 -79 -4 -31 0 -51 12 -70
16 -24 22 -26 96 -26 72 0 80 2 94 24 12 18 15 36 10 68 -6 38 -2 54 30 116
20 41 39 89 42 107 4 26 20 47 63 85 61 52 77 57 128 39 22 -7 37 -24 52 -55
12 -24 23 -50 24 -56 1 -7 5 -23 9 -35 7 -20 9 -20 38 -6 26 13 33 13 40 2 18
-29 9 34 -10 65 -37 61 -36 74 5 91 50 21 69 19 98 -10 14 -14 31 -25 38 -25
6 0 -2 15 -20 33 -18 18 -32 36 -32 40 0 18 31 4 54 -24 29 -34 35 -22 9 17
-21 32 -3 47 36 32 46 -18 69 -19 75 -3 8 21 23 19 29 -5 3 -11 13 -20 24 -19
10 0 13 3 6 6 -7 2 -13 11 -13 19 0 8 -8 17 -17 21 -21 7 -73 53 -73 65 0 4 9
12 19 17 15 8 33 3 88 -27 37 -21 83 -49 100 -62 28 -20 36 -22 58 -12 33 15
40 34 23 69 -11 23 -20 28 -52 29 -28 0 -53 11 -92 39 -70 51 -72 74 -6 76 74
3 125 8 141 15 9 4 22 8 30 10 8 1 21 10 29 18 14 14 14 17 -2 35 l-19 20 -28
-20 c-23 -16 -41 -19 -96 -17 -65 3 -68 4 -68 28 0 15 5 24 13 23 6 -2 12 2
12 7 0 6 19 10 43 10 34 1 39 3 24 11 -18 10 -33 9 -68 -5 -20 -9 -32 27 -16
43 6 6 52 11 109 11 79 0 105 -4 135 -20 37 -20 50 -20 38 -1 -3 6 -15 11 -27
11 -14 0 -18 5 -14 16 3 9 6 20 6 25 0 5 7 9 15 9 8 0 15 9 15 20 0 11 5 20
10 20 6 0 10 -25 10 -55 0 -30 3 -55 6 -55 16 0 49 37 46 53 -2 9 2 17 9 17 7
0 -2 11 -21 25 -40 30 -43 30 -77 8 -23 -15 -47 -17 -163 -14 -137 3 -160 9
-160 41 0 21 95 80 127 80 50 0 58 73 11 100 -26 14 -29 13 -60 -17 -37 -35
-101 -73 -123 -73 -17 0 -45 38 -45 60 0 8 21 30 46 49 39 30 45 38 39 60 -3
14 -7 34 -8 44 -1 9 -9 17 -19 17 -23 0 -23 16 0 29 9 6 12 11 5 11 -13 0 -94
-67 -129 -106 -25 -29 -32 -29 -79 -7 -24 12 -35 22 -31 33 21 64 20 66 -16
26 -43 -49 -58 -33 -17 17 36 44 23 49 -18 8 -26 -26 -34 -28 -76 -24 -61 7
-73 22 -52 62 8 17 19 31 24 31 4 0 13 11 19 24 16 35 -5 70 -44 74 -39 4 -55
-15 -60 -69 -4 -48 -33 -103 -56 -107 -19 -4 -30 43 -23 102 4 30 3 36 -4 21
-5 -11 -10 -46 -10 -78 -1 -42 -5 -57 -13 -55 -9 3 -12 26 -9 77 2 53 0 71 -8
66 -7 -4 -9 -15 -6 -25 3 -10 1 -22 -6 -26 -9 -5 -10 8 -7 50 4 42 1 56 -9 56
-10 0 -13 -27 -13 -120 0 -73 -4 -120 -10 -120 -6 0 -10 47 -10 120 0 113 -1
120 -20 120 -11 0 -20 5 -20 10 0 6 19 10 42 10 37 0 40 1 23 13 -23 18 -29
71 -10 87 55 46 -59 160 -160 160 -12 0 -39 -12 -62 -26z m121 -9 c20 -8 36
-19 36 -25 0 -17 -17 -19 -36 -5 -22 17 -70 20 -79 5 -9 -15 -35 -12 -35 3 0
15 35 35 61 36 9 1 33 -6 53 -14z m-130 -52 c-4 -10 -7 -28 -7 -40 1 -23 -22
-39 -32 -23 -10 16 17 80 33 80 10 0 12 -5 6 -17z m130 -7 c44 -18 58 -72 25
-98 -15 -13 -26 -15 -39 -8 -10 5 -32 7 -49 4 -41 -9 -63 14 -55 56 7 33 37
60 67 60 9 0 33 -6 51 -14z m89 -20 c10 -31 5 -41 -18 -33 -9 4 -15 19 -15 38
0 37 20 35 33 -5z m-209 -107 c-8 -14 -21 -10 -28 7 -10 25 5 40 20 19 7 -10
11 -22 8 -26z m190 23 c2 -4 1 -14 -4 -22 -7 -11 -12 -12 -21 -3 -6 6 -8 16
-5 22 8 13 23 14 30 3z m-96 -119 c-2 -64 -7 -108 -13 -108 -6 0 -11 44 -13
108 -2 92 0 107 13 107 13 0 15 -15 13 -107z m-49 78 c7 -5 11 -14 7 -19 -9
-15 -36 -4 -36 14 0 16 9 18 29 5z m123 -58 c15 -14 18 -32 18 -124 0 -101 -2
-109 -26 -138 -34 -41 -48 -31 -40 28 8 51 8 62 0 141 -5 52 7 110 22 110 4 0
16 -7 26 -17z m-432 -18 c6 -8 9 -23 6 -33 -4 -10 3 -39 14 -63 21 -48 25 -69
11 -69 -4 0 -18 22 -29 49 -12 29 -28 52 -40 55 -26 9 -33 36 -14 59 18 21 36
22 52 2z m742 -10 c12 -26 -2 -55 -27 -55 -6 0 -18 -18 -25 -40 -13 -40 -35
-68 -46 -58 -3 3 6 29 20 57 13 28 20 53 15 57 -15 9 -10 42 9 53 27 16 42 13
54 -14z m-920 -142 c27 -26 37 -53 20 -53 -12 0 -62 54 -62 68 0 18 11 14 42
-15z m555 11 c3 -9 1 -25 -5 -35 -8 -13 -12 -82 -12 -208 l0 -190 35 15 c38
16 55 12 55 -12 0 -11 6 -13 20 -9 20 6 28 -9 10 -20 -5 -3 -10 -32 -10 -63
l1 -57 22 28 c20 24 47 37 47 22 0 -14 -34 -55 -44 -55 -12 0 -61 -59 -54 -65
2 -2 21 0 43 5 62 14 83 44 109 163 4 15 11 27 16 27 14 0 12 -37 -4 -91 -13
-41 -13 -48 2 -62 19 -19 9 -35 -11 -19 -11 9 -19 6 -36 -12 -17 -18 -38 -26
-82 -31 -46 -5 -63 -12 -79 -32 -10 -13 -24 -22 -30 -18 -6 4 -10 -6 -10 -24
0 -38 19 -44 50 -16 33 30 100 44 100 21 0 -10 -8 -16 -23 -16 -23 0 -67 -25
-67 -39 0 -4 17 -13 38 -20 20 -8 42 -16 48 -18 6 -2 24 26 40 62 l29 65 65
-2 c78 -4 83 -22 6 -26 -60 -3 -80 -23 -40 -41 24 -11 33 -31 13 -31 -6 0 -19
4 -29 10 -14 8 -21 5 -34 -15 -9 -13 -16 -27 -16 -31 0 -4 28 -4 62 -1 53 5
66 10 93 39 60 64 224 276 218 282 -8 8 -64 8 -128 0 -47 -6 -52 -9 -87 -63
-21 -32 -38 -60 -38 -64 0 -3 19 5 43 18 43 26 87 33 87 15 0 -6 -8 -13 -17
-16 -10 -3 -38 -14 -63 -24 -68 -28 -100 -33 -100 -16 0 8 5 18 10 21 17 10
83 119 83 135 0 8 5 22 12 30 7 8 29 39 49 68 l36 54 -43 -7 c-54 -9 -54 -9
-61 -50 -7 -34 -19 -44 -31 -25 -3 5 -1 19 5 30 17 31 -19 26 -68 -10 -71 -51
-95 -37 -63 36 27 59 26 64 -3 64 -21 0 -25 -6 -28 -32 -2 -18 -7 -32 -13 -31
-15 4 -14 154 2 186 11 22 12 32 2 43 -34 41 -70 -22 -74 -130 -2 -42 -7 -80
-10 -86 -15 -24 -21 4 -19 89 1 85 3 93 35 138 50 70 119 103 218 103 94 0
158 -17 250 -65 104 -55 151 -101 215 -212 82 -145 83 -148 52 -246 -30 -98
-48 -124 -92 -143 -21 -9 -34 -21 -34 -32 0 -44 -66 -91 -187 -133 -46 -16
-58 -16 -109 -4 -35 8 -86 11 -133 8 -71 -5 -84 -3 -164 29 l-87 35 0 -133 0
-134 45 0 c49 0 65 16 65 65 0 38 16 62 60 90 45 28 70 32 70 10 0 -8 -6 -15
-13 -15 -7 0 -29 -14 -50 -31 -31 -25 -37 -37 -37 -69 0 -21 -6 -43 -15 -50
-8 -7 -15 -23 -15 -36 0 -13 -6 -27 -14 -31 -8 -4 -15 -17 -17 -28 -4 -17 -15
-21 -64 -26 -86 -9 -115 -2 -115 27 0 15 -6 24 -15 24 -8 0 -16 6 -17 13 0 6
-2 17 -2 22 -1 6 -9 21 -19 35 -9 13 -17 39 -17 56 0 25 -8 39 -37 63 -21 17
-43 31 -50 31 -7 0 -13 7 -13 16 0 23 46 10 90 -25 28 -22 36 -37 40 -72 8
-61 15 -69 66 -69 l44 0 0 134 0 134 -82 -35 c-79 -33 -87 -35 -168 -30 -54 3
-106 1 -142 -8 -52 -12 -62 -11 -120 9 -99 35 -158 73 -165 107 -4 20 -19 39
-47 57 -46 31 -66 66 -92 161 -21 77 -16 93 63 228 62 106 117 160 218 211 93
47 154 62 250 61 104 0 170 -31 214 -101 26 -42 29 -55 30 -132 0 -47 -3 -86
-8 -86 -9 0 -25 113 -20 140 3 15 -31 80 -42 80 -3 0 -13 -6 -23 -13 -16 -12
-17 -16 -5 -38 15 -26 21 -199 7 -199 -4 0 -11 15 -16 33 -6 25 -14 33 -35 35
l-27 3 20 -43 c22 -49 26 -88 8 -88 -7 0 -33 14 -58 30 -57 38 -83 40 -70 5 6
-16 6 -26 -2 -31 -13 -8 -28 14 -28 43 0 17 -9 24 -37 32 -61 17 -66 14 -40
-21 13 -18 41 -64 61 -102 21 -38 51 -90 67 -116 38 -61 37 -70 -3 -59 -64 16
-143 48 -141 56 4 17 33 13 82 -11 28 -13 51 -22 51 -18 0 3 -17 31 -37 62
-37 57 -37 58 -96 64 -83 8 -137 8 -137 -2 0 -5 11 -19 25 -32 14 -14 44 -48
67 -77 22 -29 44 -50 49 -47 5 3 9 -3 9 -14 0 -11 26 -47 58 -81 56 -62 58
-63 121 -68 l64 -6 -18 31 c-16 27 -21 29 -42 19 -36 -16 -41 1 -8 28 17 13
27 27 22 31 -4 4 -34 6 -67 5 -50 -2 -60 0 -60 14 0 13 11 15 71 13 l72 -3 14
-45 c7 -25 19 -53 27 -63 13 -16 16 -16 60 0 25 10 46 21 46 25 0 13 -44 38
-67 38 -14 0 -23 6 -23 15 0 23 68 9 100 -20 14 -12 31 -20 38 -18 17 6 16 53
-2 53 -7 0 -21 11 -29 24 -13 18 -28 25 -74 31 -42 5 -65 14 -84 32 -17 16
-29 21 -33 14 -4 -6 -15 -11 -24 -11 -14 0 -14 3 4 20 20 20 20 22 4 88 -10
37 -15 71 -13 75 10 17 31 -16 38 -59 5 -37 20 -71 50 -121 4 -7 95 -20 95
-14 0 4 -22 29 -50 55 -27 26 -50 55 -50 64 0 11 10 6 35 -18 l35 -34 0 56 c0
40 -4 57 -15 62 -8 3 -15 10 -15 17 0 6 7 8 17 5 11 -5 23 0 33 15 16 20 18
20 48 5 17 -9 33 -16 37 -16 3 0 5 88 5 195 0 108 -4 195 -9 195 -15 0 -22 32
-10 46 16 19 58 18 66 -2z m-733 -66 c56 -52 67 -68 44 -68 -14 0 -118 99
-118 112 0 18 21 5 74 -44z m1466 45 c0 -10 -102 -113 -112 -113 -20 0 -4 25
45 70 50 47 67 58 67 43z m39 -55 c-1 -16 -109 -102 -117 -94 -3 4 16 29 43
56 48 49 76 63 74 38z m165 -110 c14 -23 -3 -52 -32 -56 -29 -4 -51 40 -32 63
16 20 49 16 64 -7z m-1804 -63 c48 -24 67 -41 57 -52 -8 -8 -127 60 -121 69 7
11 9 11 64 -17z m1730 16 c0 -4 -27 -23 -60 -40 -73 -39 -84 -20 -12 21 48 28
72 34 72 19z m310 -171 c0 -16 -4 -30 -10 -30 -5 0 -10 14 -10 30 0 17 5 30
10 30 6 0 10 -13 10 -30z m-2400 -5 c0 -16 -6 -25 -15 -25 -9 0 -15 9 -15 25
0 16 6 25 15 25 9 0 15 -9 15 -25z m350 5 c0 -6 -52 -10 -136 -10 -87 0 -133
4 -129 10 4 6 60 10 136 10 79 0 129 -4 129 -10z m1910 0 c0 -6 -43 -10 -110
-10 -67 0 -110 4 -110 10 0 6 43 10 110 10 67 0 110 -4 110 -10z m-1372 -72
c1 -7 4 -26 8 -43 l7 -30 -22 19 c-21 19 -27 46 -14 59 10 11 20 8 21 -5z
m634 -11 c2 -12 -4 -36 -15 -52 l-19 -30 6 40 c3 22 6 46 6 53 0 21 17 13 22
-11z m-1376 -68 c7 -12 -15 -31 -28 -23 -4 3 -8 12 -8 20 0 17 26 19 36 3z
m626 -5 c15 -10 8 -20 -21 -31 -25 -9 -32 -8 -44 6 -34 40 -32 44 13 37 24 -4
47 -9 52 -12z m917 -16 c-24 -33 -27 -33 -58 -11 -21 14 -22 17 -8 28 9 6 32
12 51 12 l35 0 -20 -29z m581 18 c0 -20 -19 -31 -32 -18 -6 6 -7 15 -4 21 10
16 36 13 36 -3z m-1920 -36 c0 -6 -38 -10 -95 -10 -57 0 -95 4 -95 10 0 6 38
10 95 10 57 0 95 -4 95 -10z m1780 0 c0 -5 -20 -10 -45 -10 -25 0 -45 5 -45
10 0 6 20 10 45 10 25 0 45 -4 45 -10z m90 0 c0 -5 -18 -10 -40 -10 -22 0 -40
5 -40 10 0 6 18 10 40 10 22 0 40 -4 40 -10z m-1820 -100 c0 -14 -99 -62 -111
-54 -6 3 13 21 43 39 51 31 68 35 68 15z m1656 -16 c42 -25 57 -44 33 -44 -16
0 -99 51 -99 61 0 15 19 10 66 -17z m-1831 -79 c0 -25 -4 -31 -26 -33 -35 -4
-54 20 -39 48 8 15 19 20 38 18 23 -2 27 -8 27 -33z m1995 14 c15 -27 -5 -51
-39 -47 -26 3 -38 26 -27 54 8 22 54 17 66 -7z m-285 -16 c19 -9 35 -23 35
-30 0 -7 -3 -13 -6 -13 -13 0 -74 42 -74 51 0 12 4 12 45 -8z m-784 -113 c0
-22 1 -56 1 -75 0 -55 -1 -57 -24 -53 -16 2 -24 11 -26 28 -2 14 -15 39 -28
57 -32 42 -30 51 9 68 55 24 67 20 68 -25z m168 19 l33 -20 -22 -24 c-12 -12
-27 -42 -34 -66 -7 -25 -20 -45 -29 -47 -26 -5 -36 30 -30 106 5 65 8 72 27
72 12 0 36 -9 55 -21z m-559 -29 c0 -6 -11 -33 -25 -60 -14 -28 -21 -50 -15
-50 5 0 10 -7 10 -16 0 -11 -5 -14 -16 -10 -9 3 -26 9 -39 12 -15 4 -22 11
-18 20 3 9 13 12 24 9 13 -5 19 -1 19 10 0 22 38 95 50 95 6 0 10 -5 10 -10z
m910 -39 c12 -27 31 -52 41 -54 29 -8 23 -21 -16 -33 -28 -9 -35 -8 -35 2 0 8
5 14 10 14 6 0 -1 22 -15 50 -26 52 -31 70 -17 70 5 0 19 -22 32 -49z m-665
-21 c4 -6 -5 -10 -19 -10 -14 0 -35 -9 -46 -20 -17 -17 -20 -33 -20 -120 0
-60 -4 -100 -10 -100 -6 0 -10 42 -10 105 0 99 2 107 25 130 24 25 69 33 80
15z m-309 -80 c17 -7 24 -14 18 -20 -13 -13 -54 -1 -54 16 0 17 1 17 36 4z
m444 -200 l0 -40 58 1 57 1 -40 12 c-27 9 -41 19 -43 33 -3 18 4 21 50 26 54
5 81 -4 57 -19 -8 -4 -30 -7 -49 -7 l-35 2 35 -8 c20 -4 41 -11 48 -15 18 -11
14 -34 -7 -46 -27 -14 -134 -13 -149 2 -13 13 -17 80 -5 91 15 16 23 5 23 -33z"/>
<path d="M1105 2145 c-5 -2 -30 -6 -55 -10 -75 -10 -80 -18 -39 -62 20 -21 48
-55 64 -75 24 -34 32 -38 71 -38 24 0 44 2 44 5 0 2 -12 29 -27 60 l-27 55
-53 0 c-29 0 -53 5 -53 10 0 6 21 10 46 10 44 0 73 17 74 43 0 7 -26 8 -45 2z
m23 -125 c10 -16 10 -20 -1 -20 -17 0 -37 20 -37 37 0 17 23 7 38 -17z"/>
<path d="M1168 2125 c-10 -22 -7 -35 18 -87 55 -118 107 -153 120 -82 4 20 2
46 -5 60 -11 25 -35 32 -46 14 -9 -15 -25 -12 -25 5 0 8 23 26 50 40 28 14 50
28 50 31 0 10 -93 44 -121 44 -22 0 -32 -7 -41 -25z m69 -13 c14 -9 5 -26 -19
-35 -14 -5 -18 -1 -18 18 0 25 14 31 37 17z"/>
<path d="M1665 2126 l-50 -23 55 -28 c66 -33 64 -31 56 -44 -5 -7 -15 -6 -32
1 -20 10 -27 9 -35 -3 -27 -42 -22 -109 10 -109 23 0 40 20 88 106 37 66 39
73 26 97 -17 34 -50 35 -118 3z m83 -34 c4 -26 -10 -28 -33 -6 -13 14 -14 19
-3 25 19 13 33 5 36 -19z"/>
<path d="M1800 2143 c0 -22 38 -43 78 -43 58 0 53 -20 -5 -21 -27 -1 -50 -1
-53 -1 -3 0 -19 -26 -36 -59 l-31 -59 46 0 c45 1 47 2 109 77 l63 77 -36 13
c-52 18 -135 28 -135 16z m44 -128 c-13 -9 -20 -10 -23 -3 -2 6 5 17 15 25 13
9 20 10 22 3 2 -6 -4 -17 -14 -25z"/>
<path d="M907 2076 c-65 -39 -63 -43 23 -42 44 1 80 4 80 7 0 7 -54 59 -61 58
-2 0 -21 -11 -42 -23z"/>
<path d="M1962 2067 l-31 -32 86 -1 c94 -1 95 3 12 46 l-36 19 -31 -32z"/>
<path d="M897 2009 c-10 -6 -33 -8 -51 -5 -26 5 -37 1 -56 -19 -15 -16 -20
-29 -14 -35 20 -20 147 -60 192 -60 26 -1 67 -5 92 -10 25 -4 46 -7 48 -5 1 1
-3 14 -9 29 -10 22 -19 26 -51 26 -46 0 -48 22 -4 30 l27 5 -21 23 c-11 12
-31 22 -43 22 -12 0 -38 3 -57 5 -19 3 -43 0 -53 -6z m101 -34 c2 -1 0 -14 -3
-27 -5 -20 -13 -25 -40 -26 -51 -2 -91 49 -47 61 16 5 83 -1 90 -8z m-146 -12
c10 -9 18 -20 18 -25 0 -14 -22 -9 -36 10 -25 33 -13 44 18 15z"/>
<path d="M1957 2011 c-63 -9 -92 -47 -42 -53 37 -4 31 -23 -7 -23 -25 0 -37
-7 -51 -29 -10 -15 -16 -30 -14 -32 2 -3 24 0 48 5 24 6 63 11 86 11 46 0 157
33 187 56 19 14 19 14 -3 38 -18 19 -33 25 -65 24 -22 0 -52 2 -66 5 -14 3
-47 2 -73 -2z m81 -27 c23 -7 30 -38 10 -50 -19 -12 -62 -13 -75 -2 -7 6 -13
19 -13 28 0 27 31 36 78 24z m77 -33 c-6 -21 -35 -30 -35 -12 0 12 31 43 37
37 3 -2 2 -14 -2 -25z"/>
<path d="M1110 1936 c0 -2 7 -19 15 -39 11 -27 24 -38 52 -47 21 -7 48 -22 61
-33 12 -11 22 -16 22 -11 -1 13 -34 106 -43 122 -7 10 -107 19 -107 8z"/>
<path d="M1724 1905 c-7 -19 -21 -51 -28 -70 -17 -39 -8 -45 19 -15 10 11 36
25 57 32 30 9 43 19 54 46 8 19 14 36 14 38 0 2 -23 4 -51 4 -48 0 -51 -2 -65
-35z"/>
<path d="M784 1898 c21 -35 28 -126 11 -152 -21 -31 -9 -68 19 -60 11 3 25 10
30 15 6 5 17 9 25 9 8 0 23 7 33 17 16 14 28 15 95 5 43 -6 78 -10 79 -9 1 1
-18 33 -43 70 l-44 68 -61 -33 c-70 -39 -81 -54 -44 -64 35 -9 33 -24 -4 -24
-19 0 -33 7 -40 21 -15 26 -2 42 65 80 50 29 50 29 18 29 -18 0 -58 11 -89 25
-69 30 -68 30 -50 3z m216 -107 c5 -11 10 -22 10 -25 0 -10 -51 -6 -72 5 -21
11 -21 12 -3 25 26 20 53 17 65 -5z"/>
<path d="M2123 1898 c-18 -11 -54 -23 -80 -27 -39 -6 -44 -10 -28 -16 53 -22
95 -58 95 -82 0 -26 -21 -39 -47 -28 -16 6 -16 8 5 18 12 5 22 13 22 16 -1 11
-123 80 -132 75 -8 -5 -88 -128 -85 -130 1 0 36 3 78 9 76 10 77 10 131 -22
31 -17 60 -31 66 -31 18 0 21 42 5 67 -17 25 -12 117 8 154 12 24 3 23 -38 -3z
m-108 -108 c10 -11 14 -20 9 -21 -5 0 -26 -2 -46 -4 -41 -4 -43 -3 -28 26 14
25 42 24 65 -1z"/>
<path d="M2181 1868 c-7 -29 -14 -61 -15 -70 -2 -9 2 -25 10 -35 7 -10 14 -35
14 -55 0 -34 3 -38 37 -47 20 -6 37 -9 38 -8 0 1 6 24 13 51 12 47 12 50 -24
115 -62 111 -60 110 -73 49z m52 -77 c19 -32 22 -76 7 -86 -13 -8 -40 54 -40
90 0 33 12 32 33 -4z"/>
<path d="M727 1874 c-62 -99 -70 -123 -56 -173 7 -25 13 -47 15 -49 1 -2 20 2
42 9 38 11 40 13 31 42 -7 23 -5 35 7 48 13 14 15 30 9 77 -10 84 -18 93 -48
46z m23 -65 c0 -18 -23 -93 -31 -103 -4 -4 -12 0 -17 11 -8 14 -6 30 8 61 18
39 40 56 40 31z"/>
<path d="M1390 1775 c-6 -8 -13 -44 -14 -82 -3 -70 4 -85 76 -168 4 -5 8 45 8
110 l0 120 -29 17 c-25 14 -32 14 -41 3z m40 -100 c0 -30 -4 -55 -9 -55 -13 0
-17 26 -13 72 6 58 22 45 22 -17z"/>
<path d="M1518 1777 l-28 -11 0 -123 0 -124 28 33 c51 60 62 85 62 142 0 70
-22 98 -62 83z m30 -89 c2 -31 -2 -49 -13 -58 -13 -11 -15 -5 -15 50 0 74 23
81 28 8z"/>
<path d="M840 1665 c-7 -8 -21 -15 -31 -15 -36 0 -109 -24 -109 -36 0 -31 13
-44 46 -44 54 0 135 -21 141 -37 3 -9 12 -12 22 -7 9 4 30 9 48 13 l32 6 -56
68 c-57 69 -72 77 -93 52z m41 -38 c9 -7 21 -22 27 -34 9 -17 9 -22 -3 -27 -8
-3 -17 -1 -19 3 -3 5 -20 12 -38 16 -18 4 -36 9 -40 10 -5 1 -13 3 -19 4 -19
2 2 21 34 30 42 12 40 12 58 -2z"/>
<path d="M2012 1612 l-54 -67 34 -6 c18 -3 39 -9 47 -13 7 -5 17 -2 24 9 14
18 73 34 129 35 26 0 40 6 48 19 17 34 12 38 -62 56 -40 10 -77 21 -82 26 -18
17 -31 8 -84 -59z m134 7 c6 -5 14 -6 17 -2 4 3 7 2 7 -3 0 -11 -139 -54 -144
-45 -3 4 7 22 21 40 22 28 29 31 57 25 17 -3 36 -10 42 -15z"/>
<path d="M810 1509 c0 -32 5 -34 37 -16 25 14 19 31 -14 39 -20 5 -23 2 -23
-23z"/>
<path d="M2103 1533 c-32 -6 -28 -30 7 -48 l30 -16 0 36 c0 19 -3 34 -7 34 -5
-1 -18 -4 -30 -6z"/>
<path d="M927 1507 c-15 -6 -25 -17 -23 -23 3 -7 8 -29 12 -49 9 -51 48 -69
127 -61 32 3 63 8 68 11 5 3 -6 21 -24 39 l-32 33 -31 -24 c-35 -26 -44 -28
-44 -10 0 6 13 21 29 32 24 17 27 23 17 36 -15 22 -65 30 -99 16z"/>
<path d="M1950 1511 c-34 -9 -37 -36 -6 -57 14 -9 26 -23 26 -30 0 -21 -11
-17 -42 13 l-28 27 -37 -37 c-20 -20 -35 -39 -32 -42 3 -3 33 -8 66 -11 84 -9
120 8 134 61 6 22 13 43 16 48 4 6 -60 39 -69 36 -2 -1 -14 -4 -28 -8z"/>
<path d="M846 1463 l-30 -16 38 -19 c21 -11 39 -18 41 -16 1 2 -3 17 -9 35
-11 31 -11 31 -40 16z"/>
<path d="M2062 1444 c-12 -39 -10 -40 37 -15 l35 19 -31 15 -30 16 -11 -35z"/>
<path d="M1380 1110 c0 -6 38 -10 95 -10 57 0 95 4 95 10 0 6 -38 10 -95 10
-57 0 -95 -4 -95 -10z"/>
<path d="M1424 1071 c-14 -14 3 -21 56 -21 41 0 60 4 60 13 0 8 -18 12 -56 12
-30 0 -57 -2 -60 -4z"/>
<path d="M1166 2554 c-12 -12 -13 -20 -6 -35 12 -21 40 -25 58 -7 16 16 15 23
-4 42 -19 20 -29 20 -48 0z m42 -21 c-2 -10 -10 -18 -18 -18 -8 0 -16 8 -18
18 -2 12 3 17 18 17 15 0 20 -5 18 -17z"/>
<path d="M1705 2494 c-25 -19 -9 -49 26 -49 27 0 37 28 19 50 -15 18 -20 18
-45 -1z m35 -24 c0 -11 -7 -20 -15 -20 -8 0 -15 9 -15 20 0 11 7 20 15 20 8 0
15 -9 15 -20z"/>
<path d="M812 2374 c-16 -11 -22 -25 -22 -50 0 -30 5 -37 32 -48 18 -8 39 -11
47 -8 11 4 6 8 -15 12 -17 4 -36 10 -42 14 -20 12 -13 53 11 69 12 8 19 17 16
21 -3 3 -15 -1 -27 -10z"/>
<path d="M2045 2374 c-11 -12 -15 -30 -13 -63 3 -46 3 -46 41 -49 67 -6 100
51 61 106 -18 26 -65 30 -89 6z m73 -9 c2 -1 5 -19 9 -38 5 -33 3 -37 -21 -43
-36 -9 -54 0 -62 31 -8 34 20 68 50 59 12 -4 22 -8 24 -9z"/>
<path d="M2064 2339 c-10 -17 23 -46 37 -32 7 7 9 19 6 27 -7 18 -33 21 -43 5z"/>
<path d="M843 2343 c-18 -7 -16 -30 4 -37 24 -10 41 11 23 28 -8 7 -21 12 -27
9z"/>
<path d="M594 2296 c-10 -26 4 -48 28 -44 17 2 23 10 23 28 0 18 -6 26 -23 28
-13 2 -25 -3 -28 -12z m42 -7 c10 -17 -13 -36 -27 -22 -12 12 -4 33 11 33 5 0
12 -5 16 -11z"/>
<path d="M603 1394 c-3 -8 1 -22 9 -30 13 -13 17 -12 33 6 16 18 17 23 5 30
-22 14 -40 12 -47 -6z"/>
<path d="M2206 1269 c13 -14 19 -37 20 -70 2 -58 16 -79 55 -79 37 0 59 24 59
65 0 40 -9 48 -60 47 -29 -1 -40 4 -50 23 -7 13 -20 27 -28 30 -12 4 -11 0 4
-16z m119 -69 c15 -47 -35 -89 -70 -60 -18 15 -20 51 -3 68 20 20 66 15 73 -8z"/>
<path d="M2263 1184 c-3 -8 -1 -20 6 -27 14 -14 47 15 37 32 -10 16 -36 13
-43 -5z"/>
<path d="M720 1265 c-7 -8 -28 -15 -47 -15 -37 0 -83 -39 -83 -69 1 -25 32
-58 61 -65 45 -10 71 20 73 85 0 30 5 60 9 67 11 17 2 15 -13 -3z m-19 -68
c14 -51 -10 -74 -56 -57 -32 12 -39 29 -25 64 8 23 15 27 42 24 25 -2 33 -9
39 -31z"/>
<path d="M640 1186 c0 -16 27 -29 41 -20 13 8 -9 34 -27 34 -8 0 -14 -6 -14
-14z"/>
<path d="M1814 1106 c13 -11 17 -23 13 -42 -3 -20 0 -28 14 -31 25 -7 24 -39
-1 -46 -11 -3 -20 -12 -20 -21 0 -9 -4 -16 -10 -16 -6 0 -10 30 -10 70 0 40
-4 70 -10 70 -5 0 -10 -8 -10 -19 0 -10 -7 -24 -16 -32 -13 -10 -17 -10 -25 2
-6 9 -9 -3 -9 -38 0 -52 12 -69 24 -37 6 15 9 15 29 -3 12 -12 33 -23 47 -27
14 -3 19 -3 12 0 -6 3 -9 10 -6 15 4 6 11 6 19 -1 11 -9 12 -7 8 9 -5 20 9 23
35 8 7 -5 12 -4 12 2 0 6 6 11 14 11 8 0 17 7 20 16 4 12 2 15 -9 10 -10 -3
-15 1 -15 13 0 22 -35 55 -49 47 -6 -4 -17 4 -26 18 -9 13 -24 27 -33 30 -14
5 -14 3 2 -8z m81 -79 c0 -39 -19 -38 -23 2 -3 24 0 32 10 29 7 -3 13 -17 13
-31z"/>
<path d="M2027 1113 c-14 -13 -6 -42 13 -48 25 -8 40 1 40 25 0 23 -37 40 -53
23z m38 -23 c0 -22 -29 -18 -33 3 -3 14 1 18 15 15 10 -2 18 -10 18 -18z"/>
<path d="M1697 1020 c-10 -38 -8 -66 6 -78 10 -8 12 -2 9 31 -5 66 -7 74 -15
47z"/>
<path d="M1260 1005 c-17 -20 -5 -45 20 -45 11 0 23 7 26 15 6 15 -11 45 -26
45 -4 0 -13 -7 -20 -15z m40 -16 c0 -12 -29 -24 -37 -16 -3 4 -3 13 0 21 6 16
37 11 37 -5z"/>
<path d="M1386 751 c-13 -14 -16 -28 -11 -50 5 -24 3 -31 -8 -31 -8 0 -20 7
-27 15 -28 34 -150 5 -150 -37 0 -9 -8 -21 -17 -26 -15 -9 -16 -14 -3 -53 16
-52 34 -76 73 -96 35 -17 83 -9 114 19 12 11 28 18 35 16 10 -4 12 13 10 78
-3 73 -1 84 13 84 14 0 16 -11 13 -79 -4 -77 -3 -78 24 -90 21 -10 32 -10 42
-2 10 9 21 7 45 -6 44 -26 66 -10 66 48 0 24 4 46 10 49 5 3 20 -16 34 -43 32
-59 54 -67 90 -33 l27 26 26 -26 c25 -26 64 -31 163 -24 33 2 158 -8 185 -15
20 -5 31 0 53 23 l29 30 35 -24 c20 -13 46 -24 59 -24 31 0 74 17 74 30 0 6
-11 3 -25 -6 -59 -39 -125 9 -125 90 0 55 47 86 107 71 39 -9 53 -23 53 -52 0
-18 -8 -28 -30 -36 -16 -6 -30 -15 -30 -19 0 -14 -23 -9 -42 9 -10 9 -21 13
-24 10 -10 -9 24 -57 40 -57 21 0 97 36 98 46 0 5 4 19 9 32 20 51 -50 97
-127 85 -20 -3 -38 -12 -41 -19 -7 -20 -23 -17 -50 8 -25 23 -40 24 -158 13
-33 -3 -70 -11 -83 -17 -18 -9 -28 -9 -42 0 -11 7 -32 12 -47 11 l-28 -1 31
-7 c46 -11 54 -19 54 -52 0 -36 -17 -38 -30 -4 -7 19 -17 25 -40 25 -20 0 -30
-5 -30 -15 0 -10 10 -15 30 -15 25 0 33 -6 48 -37 9 -21 20 -39 25 -41 4 -2 7
-10 7 -18 0 -10 -15 -14 -59 -14 -71 0 -97 18 -86 59 4 14 7 41 7 60 -1 25 4
34 19 38 28 8 23 21 -6 15 -14 -2 -25 -9 -25 -15 0 -21 -73 -157 -84 -157 -13
0 -53 85 -63 133 -9 46 14 25 41 -36 l23 -52 21 58 c27 70 27 79 2 47 l-19
-25 -23 23 c-14 12 -30 22 -37 22 -9 0 -11 9 -6 30 6 26 3 30 -22 36 -15 4
-34 11 -41 17 -17 14 -58 -6 -67 -33 -3 -11 -11 -18 -16 -15 -5 4 -9 1 -9 -5
0 -12 -67 -9 -88 4 -17 10 -15 46 3 46 7 0 18 -8 24 -17 5 -10 13 -14 17 -10
11 10 -9 41 -28 45 -8 1 -22 -6 -32 -17z m192 -49 c2 -20 9 -32 18 -32 8 0 14
-7 14 -15 0 -8 -9 -15 -19 -15 -17 0 -19 -6 -15 -35 2 -19 6 -51 8 -70 4 -29
2 -35 -14 -35 -19 0 -36 32 -25 49 3 6 -4 18 -15 29 -26 24 -24 83 2 90 13 3
16 11 12 28 -3 12 -3 28 1 34 12 20 30 4 33 -28z m51 2 c-13 -16 -39 -19 -39
-4 0 12 32 30 43 23 4 -3 3 -11 -4 -19z m-286 -56 c19 -22 23 -48 7 -48 -5 0
-15 9 -22 20 -8 13 -24 20 -43 20 -41 0 -51 -9 -59 -51 -6 -32 -3 -39 18 -53
34 -21 55 -20 82 5 35 33 51 13 18 -22 -74 -78 -187 14 -137 111 28 53 98 63
136 18z m144 -58 c-1 -67 -4 -90 -14 -90 -10 0 -13 23 -13 90 0 69 3 90 13 90
11 0 14 -21 14 -90z m513 71 c0 -5 16 -4 36 2 29 9 37 8 44 -4 7 -11 12 -11
22 -1 15 15 64 16 73 2 4 -6 10 -8 14 -6 4 3 8 -17 10 -44 2 -53 -18 -103 -45
-114 -38 -15 -47 25 -9 42 14 6 25 17 25 24 0 7 3 22 6 34 8 31 -19 54 -53 45
-28 -7 -28 -9 -24 -75 3 -61 1 -68 -15 -64 -15 3 -17 12 -15 65 1 33 -1 63 -6
66 -4 3 -20 3 -36 0 -26 -5 -27 -8 -27 -69 0 -50 -3 -64 -15 -64 -12 0 -15 16
-15 85 0 69 3 85 15 85 8 0 15 -4 15 -9z m-684 -72 c8 -13 -5 -26 -31 -31 -14
-2 -21 3 -23 20 -3 18 1 22 22 22 14 0 28 -5 32 -11z m732 -77 c2 -14 -2 -22
-12 -22 -19 0 -29 17 -22 36 8 22 30 12 34 -14z"/>
<path d="M534 693 c-31 -42 -34 -163 -5 -192 25 -25 65 -27 105 -6 20 11 33
12 40 5 13 -13 53 -13 62 1 3 6 17 9 30 6 22 -4 23 -3 8 26 l-16 29 -28 -33
c-23 -27 -31 -32 -41 -22 -10 10 -8 18 14 41 33 34 33 39 2 77 -18 22 -24 26
-25 13 0 -9 5 -20 10 -23 15 -10 12 -34 -8 -55 -16 -17 -22 -18 -45 -7 -28 12
-37 36 -14 38 13 1 -30 16 -50 18 -8 1 -13 -12 -13 -34 0 -35 0 -35 45 -35 41
0 62 -15 33 -24 -35 -11 -75 -14 -88 -6 -21 13 -24 167 -3 178 9 5 14 15 12
21 -3 7 -13 0 -25 -16z"/>
<path d="M567 693 c-4 -3 -7 -19 -7 -35 0 -26 3 -28 42 -28 45 0 46 2 4 24
l-29 15 34 15 34 14 -36 1 c-20 1 -39 -2 -42 -6z"/>
<path d="M886 675 c-15 -8 -34 -15 -41 -15 -7 0 -25 -16 -40 -36 -27 -35 -27
-38 -12 -63 8 -14 25 -31 36 -37 12 -6 32 -21 44 -32 36 -33 71 -37 122 -12
36 17 49 20 60 10 15 -13 47 -6 64 13 6 8 7 26 1 50 -7 32 -5 39 13 52 25 17
20 26 -10 19 -25 -7 -41 -68 -23 -89 15 -18 5 -35 -21 -35 -21 0 -24 22 -13
104 6 39 10 46 25 41 9 -3 21 0 25 6 5 9 -3 10 -32 6 -30 -5 -46 -2 -69 13
-36 24 -89 26 -129 5z m114 -20 c7 -9 20 -13 28 -10 12 4 13 -1 9 -25 -4 -16
-2 -30 3 -30 5 0 7 -7 4 -15 -4 -8 -13 -15 -21 -15 -9 0 -13 6 -10 14 7 18
-50 76 -74 76 -9 0 -22 -7 -30 -16 -10 -13 -10 -17 2 -25 19 -12 33 -11 46 2
15 15 34 2 26 -17 -5 -13 -15 -14 -49 -9 -38 5 -44 4 -44 -11 0 -44 58 -68
100 -42 29 18 39 -1 11 -23 -56 -45 -134 -8 -143 69 -4 30 0 42 23 64 32 32
97 39 119 13z m-160 -85 c0 -29 -16 -32 -28 -5 -8 18 -8 25 1 28 18 6 27 -2
27 -23z"/>
<path d="M250 636 c0 -29 4 -45 10 -41 6 3 10 2 10 -2 0 -5 6 -17 13 -26 10
-15 12 -8 12 42 0 32 -4 57 -8 54 -4 -3 -14 1 -22 7 -13 11 -15 5 -15 -34z"/>
<path d="M710 677 c0 -2 11 -18 24 -36 l25 -33 16 31 c8 17 21 31 27 31 6 0 9
3 6 6 -3 3 -15 0 -26 -7 -16 -10 -26 -10 -46 -1 -14 6 -26 10 -26 9z"/>
<path d="M2697 643 c-4 -23 -3 -51 1 -64 13 -34 18 -11 12 51 l-5 55 -8 -42z"/>
<path d="M2570 586 c0 -57 4 -86 11 -86 7 0 9 9 6 21 -4 16 -3 18 9 8 12 -10
14 -4 14 36 0 33 4 45 13 42 6 -2 12 -18 12 -35 0 -26 4 -32 22 -32 12 0 25 5
28 10 3 6 1 10 -4 10 -7 0 -11 23 -11 55 0 43 -3 55 -15 55 -12 0 -13 -5 -7
-17 12 -24 4 -43 -14 -36 -8 3 -21 0 -28 -6 -11 -10 -16 -8 -21 8 -3 12 -4 25
0 30 3 5 1 12 -5 16 -6 4 -10 -24 -10 -79z"/>
<path d="M316 627 c-3 -16 -6 -39 -6 -50 0 -20 0 -20 15 -1 8 11 15 14 15 7 0
-7 5 -13 10 -13 6 0 10 19 10 43 0 35 -3 43 -19 43 -13 0 -21 -9 -25 -29z"/>
<path d="M2533 580 c0 -47 2 -66 4 -42 2 23 2 61 0 85 -2 23 -4 4 -4 -43z"/>
<path d="M386 624 c-9 -25 -7 -114 3 -114 5 0 9 29 9 65 -1 36 -2 65 -4 65 -1
0 -5 -7 -8 -16z"/>
<path d="M2287 634 c-16 -17 -4 -24 39 -24 32 0 44 4 42 13 -5 13 -69 22 -81
11z"/>
<path d="M1830 560 c0 -28 3 -30 35 -30 40 0 41 2 19 35 -24 36 -54 33 -54 -5z"/>
<path d="M1511 390 c-28 -24 -49 -25 -73 -3 -17 15 -18 15 -18 -6 0 -12 4 -19
10 -16 6 3 10 1 10 -4 0 -6 -4 -11 -10 -11 -20 0 -11 -48 10 -53 17 -4 20 0
20 29 0 19 5 34 10 34 6 0 10 -18 10 -40 0 -22 4 -40 9 -40 5 0 7 9 4 20 -8
28 5 70 21 70 8 0 16 9 19 20 3 11 4 20 4 20 -1 -1 -13 -10 -26 -20z"/>
<path d="M531 386 c-17 -20 -10 -87 10 -99 27 -17 64 -1 64 28 0 14 -3 25 -7
25 -5 0 -8 -11 -8 -25 0 -14 -4 -25 -10 -25 -5 0 -10 16 -10 35 0 24 5 35 15
35 20 0 19 10 -2 26 -23 17 -38 17 -52 0z m35 -12 c-3 -9 -6 -31 -6 -50 0 -19
-4 -34 -10 -34 -5 0 -10 23 -10 50 0 39 3 50 16 50 11 0 14 -5 10 -16z"/>
<path d="M770 383 c-14 -7 -35 -13 -47 -13 -14 0 -23 -6 -23 -15 0 -8 -4 -15
-10 -15 -5 0 -10 -6 -10 -12 1 -30 19 -41 71 -42 l54 -2 -3 45 c-4 69 -4 68
-32 54z m10 -44 c0 -14 -8 -19 -27 -20 l-28 -1 30 -8 c26 -6 28 -8 11 -15 -24
-10 -50 6 -54 34 -2 15 4 24 20 30 30 11 48 4 48 -20z"/>
<path d="M820 344 c0 -34 4 -53 10 -49 6 3 10 28 10 56 0 27 -4 49 -10 49 -5
0 -10 -25 -10 -56z"/>
<path d="M640 377 c-9 -7 -15 -29 -15 -54 0 -30 3 -39 12 -32 7 7 13 5 16 -3
3 -7 6 4 6 24 1 20 -4 39 -11 41 -10 4 -9 8 2 16 8 5 12 12 10 15 -3 2 -12 -1
-20 -7z"/>
<path d="M1015 378 c-27 -5 -66 -6 -85 -3 -29 4 -31 3 -12 -5 17 -7 22 -18 22
-45 0 -35 -1 -36 -32 -33 -26 2 -34 8 -36 27 -2 13 1 28 7 34 15 15 14 28 -1
25 -19 -4 -28 -20 -28 -50 0 -35 22 -47 93 -47 31 0 61 -2 67 -6 5 -3 10 -1
10 4 0 6 -4 11 -10 11 -5 0 -14 9 -20 20 -8 15 -6 23 11 38 12 12 29 18 40 15
27 -7 24 -25 -3 -21 -30 4 -33 -35 -3 -41 11 -2 23 -8 26 -13 4 -6 8 11 11 36
2 26 1 51 -2 55 -3 4 -27 3 -55 -1z"/>
<path d="M1113 383 c-20 -4 -23 -11 -23 -54 l0 -49 44 0 c45 0 56 10 56 51 0
19 -34 60 -47 58 -5 -1 -18 -4 -30 -6z m55 -56 c2 -21 -1 -37 -7 -37 -6 0 -11
7 -11 15 0 19 -18 20 -22 0 -2 -10 -8 -12 -17 -5 -12 6 -12 12 -3 23 7 7 9 17
5 21 -10 9 18 27 37 23 10 -1 16 -16 18 -40z"/>
<path d="M1383 379 c-6 -6 -9 -18 -6 -25 3 -9 -2 -14 -16 -14 -12 0 -21 -6
-21 -14 0 -9 7 -12 21 -9 12 4 25 0 30 -8 5 -9 8 3 7 34 0 26 -1 47 -2 47 -1
0 -7 -5 -13 -11z"/>
<path d="M1556 381 c-4 -5 0 -12 6 -15 10 -5 10 -7 1 -12 -22 -10 -13 -74 11
-74 6 0 11 18 12 43 0 38 2 42 24 39 15 -1 21 1 15 6 -16 14 -63 23 -69 13z"/>
<path d="M1823 379 c-7 -7 -8 -24 -2 -47 5 -25 4 -39 -4 -44 -8 -5 -6 -8 6 -8
14 0 17 9 17 55 0 59 -1 60 -17 44z"/>
<path d="M1860 340 c0 -28 4 -49 8 -46 12 7 14 83 2 91 -6 4 -10 -12 -10 -45z"/>
<path d="M1228 358 c-24 -44 0 -88 48 -88 37 0 35 15 -2 16 -43 1 -45 3 -37
48 5 33 9 37 32 34 21 -2 27 -9 29 -35 4 -43 22 -42 22 1 0 26 -5 35 -22 40
-40 10 -57 6 -70 -16z"/>
<path d="M2070 360 c-11 -11 -20 -23 -20 -28 0 -14 31 -52 43 -52 7 0 4 7 -5
14 -23 17 -23 44 -1 68 22 24 8 23 -17 -2z"/>
<path d="M2226 359 c10 -11 15 -29 12 -47 -4 -27 -2 -29 41 -31 l45 -2 -24 19
c-19 16 -21 22 -11 40 7 14 21 22 37 22 14 0 22 4 19 10 -3 6 -22 10 -41 10
-35 0 -36 0 -33 -42 2 -27 -1 -43 -10 -46 -9 -3 -12 7 -10 39 3 38 1 43 -19
44 -21 2 -21 0 -6 -16z"/>
<path d="M2367 373 c-4 -3 -7 -26 -7 -49 0 -37 -3 -43 -17 -38 -13 4 -15 3 -5
-4 16 -11 64 -3 74 12 27 39 -14 110 -45 79z m33 -43 c0 -22 -4 -40 -10 -40
-5 0 -10 18 -10 40 0 22 5 40 10 40 6 0 10 -18 10 -40z"/>
<path d="M2140 350 c0 -5 -9 -10 -20 -10 -12 0 -20 -7 -20 -16 0 -12 6 -15 20
-11 17 4 20 1 18 -15 -2 -12 3 -23 10 -25 8 -3 12 9 12 41 0 25 -4 46 -10 46
-5 0 -10 -4 -10 -10z"/>
<path d="M897 343 c-13 -12 -7 -33 8 -33 8 0 15 9 15 20 0 20 -11 26 -23 13z"/>
<path d="M1514 316 c3 -39 13 -56 29 -55 9 0 9 2 0 6 -8 2 -13 22 -13 44 0 21
-4 39 -10 39 -5 0 -8 -15 -6 -34z"/>
<path d="M1692 332 c-9 -12 -14 -14 -18 -4 -8 17 -34 15 -34 -3 0 -9 9 -15 25
-15 14 0 25 -6 26 -12 0 -7 5 0 10 16 10 36 8 41 -9 18z"/>
<path d="M1937 343 c-13 -12 -7 -33 8 -33 8 0 15 9 15 20 0 20 -11 26 -23 13z"/>
<path d="M1980 321 c0 -23 -5 -31 -22 -34 -21 -5 -21 -5 2 -4 19 2 26 9 31 35
4 17 3 32 -2 32 -5 0 -9 -13 -9 -29z"/>
<path d="M2187 344 c-9 -10 12 -46 24 -39 14 9 11 45 -4 45 -8 0 -17 -3 -20
-6z"/>
</g>
</svg>
